<svg xmlns="http://www.w3.org/2000/svg" style="margin: 8px;" width="650" height="650"><g id="topGroup" transform="translate(650, 325)" fill="none" stroke="black" stroke-width="1"><g id="tracingArcs" stroke="rgba(0, 0, 0, 0.75)"><circle cx="-325" cy="0" r="325"/><circle cx="-270.83333333333337" cy="0" r="270.83333333333337"/><circle cx="-216.66666666666666" cy="0" r="216.66666666666666"/><circle cx="-162.5" cy="0" r="162.5"/><circle cx="-108.33333333333333" cy="0" r="108.33333333333333"/><circle cx="-65" cy="0" r="65"/><circle cx="-29.545454545454547" cy="0" r="29.545454545454547"/><path d="M -59.07138136153338 -1.0740251156642433 A -1625 -1625 0 0 1 -625 -125"/><path d="M 0 0 A -650 -650 0 0 1 -520 -260"/><path d="M -58.606557377049185 -5.327868852459017 A -325 -325 0 0 1 -325 -325"/><path d="M 0 0 A -162.5 -162.5 0 0 1 -130 -260"/><path d="M -52.18978102189781 -18.978102189781023 A -81.25 -81.25 0 0 1 -38.23529411764706 -152.94117647058823"/><path d="M 0 0 A -32.5 -32.5 0 0 1 -6.435643564356436 -64.35643564356435"/><path d="M -59.07138136153338 1.0740251156642433 A 1625 1625 0 0 0 -625 125"/><path d="M 0 0 A 650 650 0 0 0 -520 260"/><path d="M -58.606557377049185 5.327868852459017 A 325 325 0 0 0 -325 325"/><path d="M 0 0 A 162.5 162.5 0 0 0 -130 260"/><path d="M -52.18978102189781 18.978102189781023 A 81.25 81.25 0 0 0 -38.23529411764706 152.94117647058823"/><path d="M 0 0 A 32.5 32.5 0 0 0 -6.435643564356436 64.35643564356435"/><circle cx="-325" cy="0" r="325" stroke="rgba(0, 0, 0, 0.25)"/><circle cx="-379.16666666666663" cy="0" r="270.83333333333337" stroke="rgba(0, 0, 0, 0.25)"/><circle cx="-433.33333333333337" cy="0" r="216.66666666666666" stroke="rgba(0, 0, 0, 0.25)"/><circle cx="-487.5" cy="0" r="162.5" stroke="rgba(0, 0, 0, 0.25)"/><circle cx="-541.6666666666667" cy="0" r="108.33333333333333" stroke="rgba(0, 0, 0, 0.25)"/><circle cx="-585" cy="0" r="65" stroke="rgba(0, 0, 0, 0.25)"/><circle cx="-620.4545454545455" cy="0" r="29.545454545454547" stroke="rgba(0, 0, 0, 0.25)"/><path d="M -590.9286186384667 -1.0740251156642433 A -1625 -1625 0 0 0 -25.000000000000057 -125" stroke="rgba(0, 0, 0, 0.25)"/><path d="M -650 0 A -650 -650 0 0 0 -129.99999999999997 -260" stroke="rgba(0, 0, 0, 0.25)"/><path d="M -591.3934426229508 -5.327868852459017 A -325 -325 0 0 0 -325 -325" stroke="rgba(0, 0, 0, 0.25)"/><path d="M -650 0 A -162.5 -162.5 0 0 0 -520 -260" stroke="rgba(0, 0, 0, 0.25)"/><path d="M -597.8102189781022 -18.978102189781023 A -81.25 -81.25 0 0 0 -611.7647058823529 -152.94117647058823" stroke="rgba(0, 0, 0, 0.25)"/><path d="M -650 0 A -32.5 -32.5 0 0 0 -643.5643564356435 -64.35643564356435" stroke="rgba(0, 0, 0, 0.25)"/><path d="M -590.9286186384667 1.0740251156642433 A 1625 1625 0 0 1 -25.000000000000057 125" stroke="rgba(0, 0, 0, 0.25)"/><path d="M -650 0 A 650 650 0 0 1 -129.99999999999997 260" stroke="rgba(0, 0, 0, 0.25)"/><path d="M -591.3934426229508 5.327868852459017 A 325 325 0 0 1 -325 325" stroke="rgba(0, 0, 0, 0.25)"/><path d="M -650 0 A 162.5 162.5 0 0 1 -520 260" stroke="rgba(0, 0, 0, 0.25)"/><path d="M -597.8102189781022 18.978102189781023 A 81.25 81.25 0 0 1 -611.7647058823529 152.94117647058823" stroke="rgba(0, 0, 0, 0.25)"/><path d="M -650 0 A 32.5 32.5 0 0 1 -643.5643564356435 64.35643564356435" stroke="rgba(0, 0, 0, 0.25)"/><line x1="0" y1="0" x2="-650" y2="0"/></g><g id="labels"><rect x="-648" y="-12" width="20" height="12" fill="white" stroke="none" opacity="0.6"/><text x="-648" y="-2" font-size="12px" stroke="none" fill="black">0</text><rect x="-539.6666666666667" y="-12" width="20" height="12" fill="white" stroke="none" opacity="0.6"/><text x="-539.6666666666667" y="-2" font-size="12px" stroke="none" fill="black">10</text><rect x="-431.3333333333333" y="-12" width="20" height="12" fill="white" stroke="none" opacity="0.6"/><text x="-431.3333333333333" y="-2" font-size="12px" stroke="none" fill="black">25</text><rect x="-323" y="-12" width="20" height="12" fill="white" stroke="none" opacity="0.6"/><text x="-323" y="-2" font-size="12px" stroke="none" fill="black">50</text><rect x="-214.66666666666666" y="-12" width="20" height="12" fill="white" stroke="none" opacity="0.6"/><text x="-214.66666666666666" y="-2" font-size="12px" stroke="none" fill="black">100</text><rect x="-128" y="-12" width="20" height="12" fill="white" stroke="none" opacity="0.6"/><text x="-128" y="-2" font-size="12px" stroke="none" fill="black">200</text><rect x="-57.09090909090909" y="-12" width="20" height="12" fill="white" stroke="none" opacity="0.6"/><text x="-57.09090909090909" y="-2" font-size="12px" stroke="none" fill="black">500</text><rect x="-621.7692307692307" y="-125.15384615384616" width="20" height="12" transform="rotate(-157.38013505195957, -611.7692307692307, -115.15384615384616)" fill="white" stroke="none" opacity="0.6"/><text x="-611.7692307692307" y="-115.15384615384616" text-anchor="middle" font-size="12px" stroke="none" transform="rotate(-157.38013505195957, -611.7692307692307, -115.15384615384616)" fill="black">10j</text><rect x="-523.6" y="-254.8" width="20" height="12" transform="rotate(-126.86989764584402, -513.6, -244.8)" fill="white" stroke="none" opacity="0.6"/><text x="-513.6" y="-244.8" text-anchor="middle" font-size="12px" stroke="none" transform="rotate(-126.86989764584402, -513.6, -244.8)" fill="black">25j</text><rect x="-339" y="-319" width="20" height="12" transform="rotate(-90, -329, -309)" fill="white" stroke="none" opacity="0.6"/><text x="-329" y="-309" text-anchor="middle" font-size="12px" stroke="none" transform="rotate(-90, -329, -309)" fill="black">50j</text><rect x="-152.8" y="-259.6" width="20" height="12" transform="rotate(-53.13010235415599, -142.8, -249.6)" fill="white" stroke="none" opacity="0.6"/><text x="-142.8" y="-249.6" text-anchor="middle" font-size="12px" stroke="none" transform="rotate(-53.13010235415599, -142.8, -249.6)" fill="black">100j</text><rect x="-64.23529411764706" y="-158.94117647058823" width="20" height="12" transform="rotate(-28.072486935852957, -54.23529411764706, -148.94117647058823)" fill="white" stroke="none" opacity="0.6"/><text x="-54.23529411764706" y="-148.94117647058823" text-anchor="middle" font-size="12px" stroke="none" transform="rotate(-28.072486935852957, -54.23529411764706, -148.94117647058823)" fill="black">200j</text><rect x="-32.910891089108915" y="-75.10891089108911" width="20" height="12" transform="rotate(-11.421186274999286, -22.91089108910891, -65.10891089108911)" fill="white" stroke="none" opacity="0.6"/><text x="-22.91089108910891" y="-65.10891089108911" text-anchor="middle" font-size="12px" stroke="none" transform="rotate(-11.421186274999286, -22.91089108910891, -65.10891089108911)" fill="black">500j</text><rect x="-618.6923076923077" y="112.53846153846153" width="20" height="12" transform="rotate(157.38013505195957, -608.6923076923077, 122.53846153846153)" fill="white" stroke="none" opacity="0.6"/><text x="-608.6923076923077" y="122.53846153846153" text-anchor="middle" font-size="12px" stroke="none" transform="rotate(157.38013505195957, -608.6923076923077, 122.53846153846153)" fill="black">-10j</text><rect x="-517.2" y="239.6" width="20" height="12" transform="rotate(126.86989764584402, -507.2, 249.6)" fill="white" stroke="none" opacity="0.6"/><text x="-507.2" y="249.6" text-anchor="middle" font-size="12px" stroke="none" transform="rotate(126.86989764584402, -507.2, 249.6)" fill="black">-25j</text><rect x="-331" y="299" width="20" height="12" transform="rotate(90, -321, 309)" fill="white" stroke="none" opacity="0.6"/><text x="-321" y="309" text-anchor="middle" font-size="12px" stroke="none" transform="rotate(90, -321, 309)" fill="black">-50j</text><rect x="-146.4" y="234.8" width="20" height="12" transform="rotate(53.13010235415599, -136.4, 244.8)" fill="white" stroke="none" opacity="0.6"/><text x="-136.4" y="244.8" text-anchor="middle" font-size="12px" stroke="none" transform="rotate(53.13010235415599, -136.4, 244.8)" fill="black">-100j</text><rect x="-60.470588235294116" y="131.88235294117646" width="20" height="12" transform="rotate(28.072486935852957, -50.470588235294116, 141.88235294117646)" fill="white" stroke="none" opacity="0.6"/><text x="-50.470588235294116" y="141.88235294117646" text-anchor="middle" font-size="12px" stroke="none" transform="rotate(28.072486935852957, -50.470588235294116, 141.88235294117646)" fill="black">-200j</text><rect x="-31.326732673267326" y="47.26732673267326" width="20" height="12" transform="rotate(11.421186274999286, -21.326732673267326, 57.26732673267326)" fill="white" stroke="none" opacity="0.6"/><text x="-21.326732673267326" y="57.26732673267326" text-anchor="middle" font-size="12px" stroke="none" transform="rotate(11.421186274999286, -21.326732673267326, 57.26732673267326)" fill="black">-500j</text></g><g id="userExtras"><g id="zMarkers"/><g id="qCircles"/><g id="vswrCircles"/><g id="sParams"/><g id="nfCircles"/><g id="stabilityCircles"/></g><g id="impedanceArc"><path stroke-linecap="round" stroke-linejoin="round" fill="none" stroke="#1f77b4" stroke-width="5" id="dp_0" d="M -224.1 -89.7 L -224.1 -89.7"/><path stroke-linecap="round" stroke-linejoin="round" fill="none" stroke="red" stroke-width="1" d="M -224.1 -89.7 L -224.1 -89.7"/></g><g id="dpCircles"><circle cx="-224.1" cy="-89.7" r="6" fill="#1f77b4" id="tol_marker_0" stroke="none"/><circle cx="-224.1" cy="-89.7" r="6" fill="#1f77b4" id="tol_marker_0_2440000000" stroke="none"/></g><g id="hoverRects"/></g></svg>